<svg xmlns="http://www.w3.org/2000/svg" width="119" height="26" viewBox="0 0 119 26">
    <g fill="none" fill-rule="evenodd">
        <path fill="#F3BC00" d="M99.271 24.818c0 .248-.05.417-.148.507-.099.09-.269.157-.51.202a155.8 155.8 0 0 0-.873.152c-.318.056-.713.107-1.185.152-.471.045-1.042.085-1.711.118-.67.034-1.498.051-2.486.051a15.63 15.63 0 0 1-2.995-.27c-.922-.18-1.723-.524-2.403-1.03-.68-.506-1.218-1.21-1.613-2.11-.395-.9-.593-2.071-.593-3.512V7.294c0-1.441.198-2.612.593-3.512.395-.9.932-1.604 1.613-2.11.68-.507 1.48-.85 2.403-1.03.921-.18 1.92-.27 2.995-.27.988 0 1.816.016 2.486.05.669.034 1.24.073 1.711.118.472.045.867.096 1.185.152l.873.152c.241.045.411.113.51.203.099.09.148.259.148.506v2.161c0 .18-.066.338-.197.473a.624.624 0 0 1-.461.203h-6.716c-.965 0-1.64.202-2.024.607-.384.406-.576 1.171-.576 2.297v3.646h8.92c.176 0 .33.068.462.203a.656.656 0 0 1 .197.473v2.43c0 .18-.066.338-.197.473a.624.624 0 0 1-.461.203h-8.921v4.356c0 1.125.192 1.89.576 2.296.384.405 1.059.608 2.024.608h6.716c.175 0 .329.067.46.202a.656.656 0 0 1 .198.473v2.161zM118.443 24.683c0 .248-.067.422-.201.523a1.713 1.713 0 0 1-.538.254 5.306 5.306 0 0 1-.688.152c-.325.056-.723.112-1.193.169-.47.056-.997.106-1.579.151s-1.198.068-1.848.068c-1.008 0-2.071-.146-3.191-.439a7.844 7.844 0 0 1-3.074-1.604c-.93-.776-1.702-1.829-2.318-3.157-.616-1.328-.924-3.039-.924-5.132v-4.964c0-2.116.308-3.844.924-5.183.616-1.34 1.389-2.392 2.318-3.157a7.769 7.769 0 0 1 3.074-1.57c1.12-.282 2.183-.423 3.191-.423.65 0 1.266.023 1.848.068.582.045 1.109.096 1.579.152.47.056.868.118 1.193.186.324.067.554.112.688.135.224.067.403.152.538.253.134.101.201.276.201.523v2.263c0 .202-.05.371-.15.506-.102.135-.275.203-.522.203h-.067c-.29-.023-.644-.05-1.058-.085a39.818 39.818 0 0 0-1.327-.084l-1.445-.068a30.966 30.966 0 0 0-1.41-.033c-.717 0-1.372.107-1.966.32a3.66 3.66 0 0 0-1.528 1.047c-.426.484-.762 1.131-1.008 1.942-.246.81-.37 1.812-.37 3.005v4.964c0 1.17.124 2.16.37 2.971.246.81.582 1.463 1.008 1.958.425.496.935.85 1.528 1.064.594.214 1.249.32 1.966.32.447 0 .918-.01 1.41-.033l1.445-.067c.47-.023.913-.051 1.327-.085.414-.034.767-.062 1.058-.084h.067c.247 0 .42.067.521.202.1.135.151.304.151.507v2.262zM71.914 15.741a2.863 2.863 0 0 1-2.425 1.345c-1.022 0-1.92-.54-2.428-1.352-.12-.089-.22-.199-.3-.33l-3.213-6.452c-.088-.135-.143-.202-.165-.202-.066 0-.1.112-.1.337v16.237c0 .18-.05.338-.148.473a.454.454 0 0 1-.381.203H59.41a.666.666 0 0 1-.398-.118c-.11-.08-.165-.209-.165-.389V1.723c0-.383.127-.704.38-.963.254-.26.569-.389.944-.389h2.715c.265 0 .508.074.729.22.22.146.386.343.496.591l5 10.338.199.355c.044.078.1.118.165.118.067 0 .122-.04.166-.118l.199-.355 5-10.338c.11-.248.275-.445.496-.591.22-.146.464-.22.728-.22h2.716c.375 0 .69.13.943.389.254.259.381.58.381.963v23.77c0 .18-.055.31-.166.389a.666.666 0 0 1-.397.118h-3.344a.454.454 0 0 1-.38-.203.777.777 0 0 1-.15-.473V9.087c0-.225-.033-.337-.1-.337-.021 0-.076.067-.165.202l-3.178 6.453a1.157 1.157 0 0 1-.31.336z"/>
        <g transform="translate(35.53 .371)">
            <path fill="#006FB4" d="M14.206 18.24l1.516 6.37c.044.156.121.29.23.402.11.112.243.168.396.168h3.495a.61.61 0 0 0 .428-.151.54.54 0 0 0 .165-.42.51.51 0 0 1-.033-.167L14.997 3.42c-.198-.782-.484-1.397-.857-1.844-.374-.447-.775-.788-1.204-1.023a3.94 3.94 0 0 0-1.318-.452C11.168.034 10.766 0 10.415 0c-.352 0-.753.034-1.204.1a3.94 3.94 0 0 0-1.318.453c-.429.235-.83.576-1.204 1.023-.373.447 3.172-.627 4.227 2.727l3.29 13.936z"/>
            <path fill="#0081D0" d="M6.528 18.24l-1.516 6.37a.918.918 0 0 1-.23.402.535.535 0 0 1-.396.168H.89a.61.61 0 0 1-.428-.151.54.54 0 0 1-.165-.42.51.51 0 0 0 .033-.167L5.737 3.42c.198-.782.484-1.397.857-1.844.374-.447.775-.788 1.204-1.023A3.94 3.94 0 0 1 9.116.101C9.566.034 9.968 0 10.32 0c.352 0 .753.034 1.204.1.45.068.89.219 1.318.453.429.235.83.576 1.204 1.023.373.447-3.172-.627-4.227 2.727L6.528 18.24z"/>
            <ellipse cx="10.363" cy="17.829" fill="#0081D0" rx="2.591" ry="2.6"/>
        </g>
        <g transform="translate(0 .371)">
            <path fill="#006FB4" d="M14.206 18.24l1.516 6.37c.044.156.121.29.23.402.11.112.243.168.396.168h3.495a.61.61 0 0 0 .428-.151.54.54 0 0 0 .165-.42.51.51 0 0 1-.033-.167L14.997 3.42c-.198-.782-.484-1.397-.857-1.844-.374-.447-.775-.788-1.204-1.023a3.94 3.94 0 0 0-1.318-.452C11.168.034 10.766 0 10.415 0c-.352 0-.753.034-1.204.1a3.94 3.94 0 0 0-1.318.453c-.429.235-.83.576-1.204 1.023-.373.447 3.172-.627 4.227 2.727l3.29 13.936z"/>
            <path fill="#0081D0" d="M6.528 18.24l-1.516 6.37a.918.918 0 0 1-.23.402.535.535 0 0 1-.396.168H.89a.61.61 0 0 1-.428-.151.54.54 0 0 1-.165-.42.51.51 0 0 0 .033-.167L5.737 3.42c.198-.782.484-1.397.857-1.844.374-.447.775-.788 1.204-1.023A3.94 3.94 0 0 1 9.116.101C9.566.034 9.968 0 10.32 0c.352 0 .753.034 1.204.1.45.068.89.219 1.318.453.429.235.83.576 1.204 1.023.373.447-3.172-.627-4.227 2.727L6.528 18.24z"/>
            <ellipse cx="10.363" cy="17.829" fill="#0081D0" rx="2.591" ry="2.6"/>
        </g>
        <path fill="#006FB4" d="M31.966 7.279L33.48.87a.925.925 0 0 1 .231-.405.533.533 0 0 1 .395-.168H37.6c.175 0 .318.05.428.152.11.1.165.241.165.421a.516.516 0 0 0-.033.169l-5.403 21.149c-.198.787-.484 1.405-.857 1.855-.373.45-.774.793-1.202 1.029a3.92 3.92 0 0 1-1.318.455c-.45.068-.851.102-1.203.102-.351 0-.752-.034-1.202-.102a3.92 3.92 0 0 1-1.318-.455c-.428-.236-.83-.579-1.203-1.029-.373-.45 3.17.631 4.225-2.744l3.287-14.02z"/>
        <path fill="#0081D0" d="M24.29 7.279L22.774.87a.925.925 0 0 0-.23-.405.533.533 0 0 0-.395-.168h-3.493a.607.607 0 0 0-.428.152.545.545 0 0 0-.165.421c.028.09.033.124.033.169L23.5 22.188c.198.787.483 1.405.857 1.855.373.45.774.793 1.202 1.029a3.92 3.92 0 0 0 1.318.455c.45.068.851.102 1.203.102.351 0 .752-.034 1.202-.102.45-.067.89-.219 1.318-.455.428-.236.83-.579 1.203-1.029.373-.45-3.17.631-4.225-2.744L24.29 7.28z"/>
    </g>
</svg>
